<?xml version="1.0" encoding="UTF-8"?>
<svg width="32" height="32" viewBox="0 0 32 32" fill="none" xmlns="http://www.w3.org/2000/svg">
  <!-- Outer glow -->
  <circle cx="16" cy="16" r="15" fill="url(#gold-gradient)" filter="url(#glow)"/>
  
  <!-- Chakra symbol -->
  <path d="M16 4C9.373 4 4 9.373 4 16s5.373 12 12 12 12-5.373 12-12S22.627 4 16 4zm0 2c5.523 0 10 4.477 10 10s-4.477 10-10 10S6 21.523 6 16 10.477 6 16 6z" fill="url(#gold-gradient)"/>
  <path d="M16 8c-4.418 0-8 3.582-8 8s3.582 8 8 8 8-3.582 8-8-3.582-8-8-8zm0 2c3.314 0 6 2.686 6 6s-2.686 6-6 6-6-2.686-6-6 2.686-6 6-6z" fill="url(#gold-gradient)"/>
  <path d="M16 12c-2.21 0-4 1.79-4 4s1.79 4 4 4 4-1.79 4-4-1.79-4-4-4zm0 2c1.105 0 2 .895 2 2s-.895 2-2 2-2-.895-2-2 .895-2 2-2z" fill="url(#gold-gradient)"/>
  
  <!-- Petals -->
  <g fill="url(#gold-gradient)">
    <path d="M16 2l2 6h-4l2-6z"/>
    <path d="M16 30l-2-6h4l-2 6z"/>
    <path d="M2 16l6-2v4l-6-2z"/>
    <path d="M30 16l-6 2v-4l6 2z"/>
    <path d="M5.5 5.5l4.5 4.5-3 3-4.5-4.5 3-3z"/>
    <path d="M26.5 26.5l-4.5-4.5 3-3 4.5 4.5-3 3z"/>
    <path d="M5.5 26.5l3-3 4.5 4.5-3 3-4.5-4.5z"/>
    <path d="M26.5 5.5l-3 3-4.5-4.5 3-3 4.5 4.5z"/>
  </g>
  
  <!-- Gradients and filters -->
  <defs>
    <linearGradient id="gold-gradient" x1="0" y1="0" x2="32" y2="32" gradientUnits="userSpaceOnUse">
      <stop offset="0%" stop-color="#FFD700"/>
      <stop offset="50%" stop-color="#FFA500"/>
      <stop offset="100%" stop-color="#FFD700"/>
    </linearGradient>
    <filter id="glow" x="-50%" y="-50%" width="200%" height="200%">
      <feGaussianBlur stdDeviation="2" result="blur"/>
      <feComposite in="SourceGraphic" in2="blur" operator="over"/>
    </filter>
  </defs>
</svg> 